1.9Hzhigh3min_grf.mot
version=1
nRows=15
nColumns 19
inDegrees=yes
endheader
time	1_ground_force_vx	1_ground_force_vy	1_ground_force_vz	1_ground_force_px	1_ground_force_py	1_ground_force_pz	1_ground_torque_x	1_ground_torque_y	1_ground_torque_z	2_ground_force_vx	2_ground_force_vy	2_ground_force_vz	2_ground_force_px	2_ground_force_py	2_ground_force_pz	2_ground_torque_x	2_ground_torque_y	2_ground_torque_z
            3.751500	           -9.579291	         1366.228978	          -77.578383	           -0.282987	            0.006265	           -0.417257	           -0.015498	            2.210342	           -0.125510	          -39.832063	         1232.987668	           91.326893	           -0.250532	            0.005572	           -0.695776	            0.049895	           -1.544475	           -0.114399
            3.752000	          -11.638820	         1363.159239	          -76.440009	           -0.282979	            0.006265	           -0.417145	           -0.014664	            1.717463	           -0.096308	          -39.582422	         1228.752136	           91.546328	           -0.250443	            0.005572	           -0.695641	            0.065446	           -2.031628	           -0.151363
            3.752500	          -12.234312	         1358.112594	          -76.643596	           -0.282863	            0.006265	           -0.417204	           -0.018420	            2.044830	           -0.115398	          -38.308796	         1226.362600	           91.631105	           -0.250395	            0.005573	           -0.695711	            0.083376	           -2.669081	           -0.199428
            3.753000	          -11.778607	         1354.332971	          -78.036636	           -0.282697	            0.006265	           -0.417152	           -0.024938	            2.867391	           -0.165219	          -37.217020	         1222.318454	           90.724550	           -0.250301	            0.005573	           -0.695618	            0.090138	           -2.960402	           -0.219731
            3.753500	          -11.138925	         1349.110668	          -79.298758	           -0.282541	            0.006265	           -0.417266	           -0.029270	            3.545034	           -0.208372	          -37.065359	         1219.189892	           90.290975	           -0.250160	            0.005573	           -0.695639	            0.083116	           -2.733939	           -0.202471
            3.754000	          -12.147331	         1344.604858	          -79.590723	           -0.282575	            0.006266	           -0.417346	           -0.030854	            3.415232	           -0.202157	          -39.209672	         1216.234444	           90.609867	           -0.250169	            0.005574	           -0.695735	            0.063644	           -1.974143	           -0.147074
            3.754500	          -14.161601	         1340.995542	          -78.729909	           -0.282451	            0.006265	           -0.417222	           -0.029425	            2.786337	           -0.163586	          -41.818459	         1212.172248	           91.018889	           -0.250060	            0.005574	           -0.695673	            0.047983	           -1.390873	           -0.104437
            3.755000	          -17.046187	         1336.663889	          -77.640750	           -0.282451	            0.006265	           -0.417132	           -0.023697	            1.858217	           -0.107935	          -44.052633	         1208.112911	           91.005390	           -0.249775	            0.005575	           -0.695665	            0.042282	           -1.159564	           -0.087348
            3.755500	          -19.563446	         1332.871894	          -76.275040	           -0.282241	            0.006264	           -0.416970	           -0.020752	            1.413830	           -0.080908	          -44.834982	         1204.241726	           91.320419	           -0.249749	            0.005575	           -0.695665	            0.054692	           -1.468999	           -0.111398
            3.756000	          -20.982957	         1328.363693	          -75.969857	           -0.282141	            0.006264	           -0.417020	           -0.026919	            1.704183	           -0.097463	          -43.885459	         1200.747211	           91.072904	           -0.249705	            0.005575	           -0.695671	            0.073328	           -2.006335	           -0.152174
            3.756500	          -21.306189	         1322.420609	          -77.370238	           -0.282106	            0.006265	           -0.417149	           -0.039525	            2.453188	           -0.143528	          -41.809606	         1196.704532	           90.682147	           -0.249625	            0.005575	           -0.695641	            0.077869	           -2.228813	           -0.168892
            3.757000	          -21.262727	         1318.640317	          -78.624698	           -0.281900	            0.006264	           -0.417022	           -0.049058	            3.042435	           -0.181407	          -41.284454	         1193.945560	           90.296647	           -0.249566	            0.005576	           -0.695862	            0.070588	           -2.041401	           -0.154389
            3.757500	          -21.859945	         1313.056051	          -79.564298	           -0.281844	            0.006265	           -0.417141	           -0.048275	            2.899741	           -0.175709	          -42.390427	         1188.786823	           89.856367	           -0.249582	            0.005575	           -0.695626	            0.051576	           -1.446376	           -0.109327
            3.758000	          -23.462908	         1308.367592	          -79.305270	           -0.281784	            0.006265	           -0.417120	           -0.041042	            2.288612	           -0.138722	          -45.095569	         1185.460851	           90.268056	           -0.249422	            0.005576	           -0.695806	            0.036476	           -0.958873	           -0.073014
            3.758500	          -26.483624	         1303.853380	          -77.666272	           -0.281789	            0.006264	           -0.417056	           -0.029679	            1.461168	           -0.087037	          -47.747200	         1180.293351	           90.720075	           -0.249301	            0.005577	           -0.695733	            0.030560	           -0.755438	           -0.058065
